# xmcd
#
# Track frame offsets:
#	150
#	16325
#	34275
#	50961
#	73210
#	87958
#	106673
#	127994
#	146006
#	167304
#
# Disc length: 2567 seconds
#
# Revision: 1
# Processed by: cddbd v1.4PL0 Copyright (c) Steve Scherf et al.
# Submitted via: audiograbber 1.81.03
#
DISCID=850a050a
DTITLE=Mason Ruffner - Evolution
DYEAR=1994
DGENRE=Blues
TTITLE0=I Got A Flame
TTITLE1=Kings Highway
TTITLE2=Angel Love
TTITLE3=Farewell
TTITLE4=Lament In 6/8
TTITLE5=Let The Spirit Go
TTITLE6=Steel Rain
TTITLE7=Evolution Song
TTITLE8=You Are The Best
TTITLE9=The Ragman
EXTD=
EXTT0=
EXTT1=
EXTT2=
EXTT3=
EXTT4=
EXTT5=
EXTT6=
EXTT7=
EXTT8=
EXTT9=
PLAYORDER=
